<?xml version="1.0" encoding="utf-8"?>
<!-- Generator: Adobe Illustrator 16.0.0, SVG Export Plug-In . SVG Version: 6.00 Build 0)  -->
<!DOCTYPE svg PUBLIC "-//W3C//DTD SVG 1.1//EN" "http://www.w3.org/Graphics/SVG/1.1/DTD/svg11.dtd">
<svg version="1.1" id="Capa_1" xmlns="http://www.w3.org/2000/svg" xmlns:xlink="http://www.w3.org/1999/xlink" x="0px" y="0px"
	 width="300px" height="75px" viewBox="0 0 300 75" enable-background="new 0 0 300 75" xml:space="preserve">
<g>
	<g>
		<path fill="#1F1F1D" d="M59.42,32.25v12.58h11.02V59.8c-1.32,0.601-4.2,1.08-7.9,1.08c-10.8,0-18.93-5.87-21.57-15.93h-18.2v1.3
			c0,11.15-4.2,14.15-11.02,14.15c-3.24,0-6-0.48-8.27-1.32l-1.8,13.061c3.24,1.069,8.03,1.67,11.74,1.67
			c9.23,0,16.4-2.5,20.73-8.601c6.46,5.74,15.57,8.601,27.9,8.601c9.47,0,18.8-2.261,23.84-4.061v-37.5H59.4H59.42z"/>
		<path fill="#1F1F1D" d="M40.5,32.25C42.52,20.27,51.86,14.4,63.72,14.4c7.8,0,12.7,1.32,16.65,3.12l3.35-12.94
			C80.26,2.9,73.2,1.1,63.97,1.1c-9.58,0-18.2,2.28-25.03,6.72V1.35H22.77v30.9H40.5z"/>
	</g>
	<g enable-background="new    ">
		<path fill="#1F1F1D" d="M110.3,4.6h3.58v18.48c0,7.34-3.6,9.6-8.36,9.6c-1.32,0-2.9-0.3-3.82-0.66l0.54-2.9
			c0.73,0.28,1.8,0.52,3,0.52c3.2,0,5.07-1.43,5.07-6.85V4.6H110.3z M136.3,26.8c0,2.06,0.04,3.86,0.17,5.42h-3.2l-0.2-3.23h-0.1
			c-0.93,1.58-3.02,3.67-6.55,3.67c-3.12,0-6.85-1.72-6.85-8.7v-11.6h3.6v11c0,3.77,1.16,6.3,4.44,6.3c2.43,0,4.1-1.67,4.76-3.27
			c0.2-0.53,0.33-1.2,0.33-1.84V12.38h3.6V26.8z M153.27,32.22l-0.299-2.5h-0.101c-1.101,1.56-3.24,2.95-6.07,2.95
			c-4.02,0-6.07-2.82-6.07-5.7c0-4.8,4.26-7.4,11.93-7.37v-0.4c0-1.65-0.45-4.6-4.5-4.6c-1.85,0-3.78,0.57-5.17,1.47l-0.83-2.38
			c1.64-1.07,4-1.77,6.5-1.77c6.08,0,7.56,4.14,7.56,8.12v7.4c0,1.74,0.08,3.42,0.32,4.77h-3.28L153.27,32.22z M152.74,22.1
			c-3.94-0.08-8.4,0.6-8.4,4.47c0,2.33,1.55,3.44,3.4,3.44c2.58,0,4.22-1.63,4.8-3.3c0.12-0.38,0.2-0.8,0.2-1.16V22.1z
			 M162.04,17.75c0-2.04-0.03-3.73-0.16-5.37h3.2l0.199,3.28h0.08c1-1.9,3.281-3.73,6.561-3.73c2.75,0,7,1.64,7,8.45v11.84h-3.6
			V20.8c0-3.2-1.18-5.87-4.58-5.87c-2.381,0-4.23,1.68-4.84,3.7c-0.17,0.44-0.25,1.05-0.25,1.67v11.93h-3.601V17.75H162.04z
			 M214.641,31c-1.601,0.57-4.75,1.5-8.48,1.5c-4.2,0-7.631-1.05-10.34-3.64c-2.37-2.3-3.85-5.98-3.85-10.3
			c0.039-8.23,5.699-14.25,14.959-14.25c3.2,0,5.7,0.7,6.9,1.28l-0.87,2.9c-1.479-0.65-3.319-1.18-6.101-1.18
			c-6.729,0-11.119,4.18-11.119,11.1c0,7.02,4.22,11.16,10.66,11.16c2.34,0,3.93-0.33,4.75-0.74v-8.24h-5.601V17.7h9.101V31H214.641
			z M231.279,32.22L231,29.72h-0.13c-1.101,1.56-3.24,2.95-6.06,2.95c-4,0-6.061-2.82-6.061-5.7c0-4.8,4.27-7.4,11.93-7.37v-0.4
			c0-1.65-0.449-4.6-4.5-4.6c-1.85,0-3.779,0.57-5.17,1.47l-0.82-2.38c1.641-1.07,4.021-1.77,6.521-1.77c6.06,0,7.54,4.14,7.54,8.12
			v7.4c0,1.74,0.08,3.42,0.33,4.77h-3.28L231.279,32.22z M230.75,22.1c-3.93-0.08-8.4,0.6-8.4,4.47c0,2.33,1.561,3.44,3.4,3.44
			c2.58,0,4.221-1.63,4.8-3.3c0.12-0.38,0.2-0.8,0.2-1.16V22.1z M240.061,3.12h3.6v29.1h-3.6V3.12z M251.74,22.96
			c0.08,4.88,3.199,6.88,6.8,6.88c2.601,0,4.149-0.45,5.5-1.02l0.601,2.58c-1.261,0.58-3.431,1.23-6.601,1.23
			c-6.101,0-9.75-4-9.75-10c0-5.98,3.521-10.7,9.3-10.7c6.48,0,8.2,5.7,8.2,9.35c0,0.73-0.08,1.3-0.12,1.68H251.73H251.74z
			 M262.32,20.38c0.029-2.3-0.95-5.87-5-5.87c-3.66,0-5.26,3.37-5.541,5.88h10.541V20.38z M270.27,18.57c0-2.33-0.039-4.34-0.16-6.2
			h3.16l0.121,3.9h0.17c0.899-2.66,3.069-4.34,5.5-4.34c0.399,0,0.699,0.04,1.02,0.13v3.4c-0.37-0.08-0.74-0.13-1.23-0.13
			c-2.55,0-4.35,1.93-4.84,4.64c-0.08,0.5-0.17,1.06-0.17,1.68v10.57h-3.561V18.57H270.27z M294.45,32.22l-0.28-2.5h-0.12
			c-1.1,1.56-3.239,2.95-6.069,2.95c-4.021,0-6.07-2.82-6.07-5.7c0-4.8,4.279-7.4,11.939-7.37v-0.4c0-1.65-0.449-4.6-4.5-4.6
			c-1.85,0-3.779,0.57-5.17,1.47l-0.82-2.38c1.641-1.07,4.021-1.77,6.521-1.77c6.07,0,7.54,4.14,7.54,8.12v7.4
			c0,1.74,0.1,3.42,0.34,4.77h-3.279L294.45,32.22z M293.92,22.1c-3.93-0.08-8.4,0.6-8.4,4.47c0,2.33,1.561,3.44,3.4,3.44
			c2.58,0,4.221-1.63,4.801-3.3c0.119-0.38,0.199-0.8,0.199-1.16V22.1z"/>
	</g>
	<path fill="#FCDF09" d="M102.06,46.02h196.2v23.84h-196.2V46.02z"/>
	<g enable-background="new    ">
		<path fill="#1F1F1D" d="M119.02,57.721c-0.08-1.58-0.18-3.5-0.17-4.9h-0.05c-0.38,1.33-0.85,2.74-1.43,4.3l-2,5.5h-1.1
			l-1.85-5.399c-0.53-1.601-1-3.051-1.3-4.4h-0.04c-0.04,1.42-0.12,3.32-0.22,5.02l-0.3,4.86h-1.4l0.8-11.341h1.86l1.94,5.5
			c0.47,1.381,0.85,2.631,1.14,3.801h0.05c0.3-1.141,0.7-2.381,1.2-3.801l2-5.5h1.88l0.7,11.341h-1.42l-0.28-4.979H119.02z
			 M127.54,62.7l-0.1-1.03h-0.06c-0.46,0.641-1.33,1.221-2.5,1.221c-1.64,0-2.5-1.181-2.5-2.351c0-1.97,1.76-3.05,4.9-3.03v-0.17
			c0-0.67-0.17-1.9-1.84-1.9c-0.76,0-1.55,0.25-2.12,0.621l-0.34-0.98c0.67-0.45,1.65-0.73,2.68-0.73c2.5,0,3.1,1.7,3.1,3.33v3.051
			c0,0.699,0.03,1.399,0.13,1.949h-1.36L127.54,62.7z M127.34,58.54c-1.63-0.03-3.46,0.25-3.46,1.84c0,0.96,0.64,1.399,1.4,1.399
			c1.05,0,1.73-0.659,1.96-1.35c0.05-0.15,0.1-0.32,0.1-0.47V58.54z M131.14,57.1c0-0.959,0-1.8-0.06-2.55h1.3l0.04,1.601h0.07
			c0.36-1.101,1.25-1.78,2.24-1.78c0.17,0,0.3,0.021,0.42,0.05v1.4c-0.15-0.041-0.3-0.051-0.5-0.051c-1.04,0-1.78,0.801-2,1.9
			c-0.02,0.2-0.05,0.439-0.05,0.7v4.33h-1.46V57.1z M138.17,58.3h0.04c0.2-0.3,0.5-0.649,0.73-0.94l2.4-2.799h1.78l-3.14,3.34
			l3.58,4.8h-1.8l-2.8-3.9l-0.77,0.83v3.07h-1.46V50.75h1.48v7.54L138.17,58.3z M145.42,58.9c0.04,2,1.32,2.82,2.8,2.82
			c1.06,0,1.7-0.181,2.25-0.421l0.25,1.06c-0.521,0.24-1.401,0.5-2.701,0.5c-2.5,0-4-1.639-4-4.1c0-2.46,1.43-4.4,3.8-4.4
			c2.67,0,3.37,2.351,3.37,3.851c0,0.3-0.039,0.54-0.06,0.7h-5.72L145.42,58.9z M149.77,57.84c0-0.949-0.4-2.4-2.06-2.4
			c-1.48,0-2.14,1.371-2.26,2.4h4.33H149.77z M154.8,52.2v2.35h2.13v1.13h-2.119v4.4c0,1,0.299,1.57,1.119,1.57
			c0.4,0,0.68-0.041,0.86-0.101l0.069,1.101c-0.299,0.129-0.739,0.22-1.319,0.22c-0.7,0-1.24-0.22-1.601-0.63
			c-0.42-0.43-0.569-1.16-0.569-2.12v-4.44h-1.261v-1.13h1.261V52.6l1.45-0.399H154.8z M160.24,52.26c0.02,0.5-0.35,0.9-0.94,0.9
			c-0.521,0-0.899-0.4-0.899-0.9c0-0.52,0.399-0.92,0.939-0.92C159.891,51.34,160.24,51.74,160.24,52.26z M158.6,62.7v-8.15h1.471
			v8.15h-1.48H158.6z M162.529,56.76c0-0.84-0.02-1.539-0.069-2.199h1.319l0.08,1.34h0.031c0.399-0.771,1.34-1.53,2.68-1.53
			c1.13,0,2.88,0.67,2.88,3.47v4.86h-1.479V58c0-1.3-0.5-2.4-1.881-2.4c-0.98,0-1.74,0.7-2,1.5c-0.05,0.2-0.1,0.45-0.1,0.7v4.9
			h-1.471v-5.94H162.529z M178.88,54.55c-0.03,0.601-0.06,1.25-0.06,2.24v4.72c0,1.87-0.37,3-1.16,3.721
			c-0.801,0.74-1.939,0.979-2.971,0.979c-0.979,0-2.06-0.239-2.719-0.681l0.369-1.129c0.54,0.35,1.381,0.66,2.4,0.66
			c1.5,0,2.619-0.801,2.619-2.851v-0.899h-0.029c-0.46,0.76-1.33,1.369-2.6,1.369c-2.021,0-3.461-1.72-3.461-3.979
			c0-2.771,1.801-4.33,3.67-4.33c1.4,0,2.181,0.739,2.541,1.399h0.02l0.07-1.22h1.279H178.88z M177.35,57.77
			c0-0.26,0-0.47-0.08-0.67c-0.27-0.859-1-1.57-2.069-1.57c-1.421,0-2.431,1.201-2.431,3.08c0,1.601,0.801,2.94,2.4,2.94
			c0.92,0,1.74-0.569,2.061-1.5c0.1-0.271,0.119-0.55,0.119-0.8v-1.471V57.77z M186.35,51.35V62.7h-1.459V51.35h1.449H186.35z
			 M200.4,62.33c-0.541,0.27-1.621,0.54-3,0.54c-3.2,0-5.601-2.021-5.601-5.74c0-3.55,2.4-5.96,5.921-5.96
			c1.42,0,2.299,0.301,2.699,0.5l-0.359,1.2c-0.551-0.271-1.351-0.47-2.301-0.47c-2.65,0-4.4,1.699-4.4,4.68
			c0,2.779,1.58,4.561,4.341,4.561c0.899,0,1.8-0.181,2.399-0.471L200.4,62.33L200.4,62.33z M209.359,58.561
			c0,3-2.1,4.319-4.06,4.319c-2.2,0-3.899-1.601-3.899-4.2c0-2.699,1.779-4.3,4.039-4.3
			C207.779,54.38,209.359,56.061,209.359,58.561z M202.9,58.641c0,1.799,1.02,3.129,2.47,3.129c1.42,0,2.479-1.33,2.479-3.16
			c0-1.369-0.699-3.119-2.439-3.119s-2.5,1.619-2.5,3.16L202.9,58.641z M211.23,56.76c0-0.84-0.021-1.539-0.07-2.199h1.3l0.06,1.299
			h0.051c0.459-0.77,1.199-1.5,2.56-1.5c1.101,0,1.95,0.681,2.3,1.641h0.041c0.25-0.45,0.569-0.8,0.899-1.061
			c0.5-0.369,1.03-0.569,1.8-0.569c1.1,0,2.7,0.7,2.7,3.53v4.8h-1.46V58.1c0-1.58-0.561-2.52-1.76-2.52c-0.84,0-1.5,0.62-1.75,1.35
			c-0.08,0.2-0.131,0.471-0.131,0.73v5.04h-1.439v-4.88c0-1.301-0.58-2.24-1.7-2.24c-0.93,0-1.601,0.74-1.84,1.48
			c-0.101,0.219-0.13,0.469-0.13,0.719V62.7h-1.44v-5.94H211.23z M232.07,60.48c0,0.84,0.02,1.58,0.07,2.22h-1.32l-0.08-1.33h-0.04
			c-0.38,0.649-1.24,1.5-2.7,1.5c-1.27,0-2.8-0.7-2.8-3.55V54.55h1.5v4.5c0,1.56,0.46,2.601,1.8,2.601c1,0,1.7-0.68,1.96-1.34
			c0.08-0.201,0.13-0.48,0.13-0.75v-5h1.471v5.93L232.07,60.48z M234.52,56.76c0-0.84,0-1.539-0.069-2.199h1.319l0.08,1.34h0.041
			c0.399-0.771,1.33-1.53,2.68-1.53c1.119,0,2.88,0.67,2.88,3.47v4.86h-1.5V58c0-1.3-0.47-2.4-1.87-2.4c-1,0-1.74,0.7-2,1.5
			c-0.061,0.2-0.1,0.45-0.1,0.7v4.9h-1.48v-5.94H234.52z M245.5,52.26c0.029,0.5-0.35,0.9-0.93,0.9c-0.521,0-0.9-0.4-0.9-0.9
			c0-0.52,0.4-0.92,0.93-0.92C245.15,51.34,245.5,51.74,245.5,52.26z M243.859,62.7v-8.15h1.48v8.15H243.859z M253.6,62.4
			c-0.399,0.199-1.25,0.47-2.34,0.47c-2.46,0-4.06-1.67-4.06-4.16c0-2.5,1.72-4.319,4.38-4.319c0.88,0,1.65,0.229,2.061,0.43
			l-0.341,1.15c-0.36-0.201-0.899-0.4-1.72-0.4c-1.87,0-2.88,1.4-2.88,3.1c0,1.88,1.22,3.04,2.829,3.04
			c0.841,0,1.4-0.229,1.82-0.399l0.25,1.1V62.4z M259.84,62.7l-0.119-1.03h-0.051c-0.449,0.641-1.33,1.221-2.5,1.221
			c-1.641,0-2.48-1.181-2.48-2.351c0-1.97,1.74-3.05,4.9-3.03v-0.17c0-0.67-0.199-1.9-1.869-1.9c-0.75,0-1.541,0.25-2.101,0.621
			l-0.351-0.98c0.67-0.45,1.65-0.73,2.681-0.73c2.479,0,3.1,1.7,3.1,3.33v3.051c0,0.699,0.03,1.399,0.13,1.949h-1.359L259.84,62.7z
			 M259.62,58.54c-1.601-0.03-3.45,0.25-3.45,1.84c0,0.96,0.641,1.399,1.4,1.399c1.06,0,1.729-0.659,1.97-1.35
			c0.05-0.15,0.08-0.32,0.08-0.47V58.54L259.62,58.54z M269.24,62.4c-0.381,0.199-1.24,0.47-2.34,0.47
			c-2.45,0-4.051-1.67-4.051-4.16c0-2.5,1.721-4.319,4.371-4.319c0.879,0,1.649,0.229,2.059,0.43l-0.34,1.15
			c-0.35-0.201-0.899-0.4-1.719-0.4c-1.861,0-2.871,1.4-2.871,3.1c0,1.88,1.2,3.04,2.83,3.04c0.84,0,1.4-0.229,1.801-0.399l0.26,1.1
			V62.4z M272.62,52.26c0.021,0.5-0.351,0.9-0.94,0.9c-0.52,0-0.9-0.4-0.9-0.9c0-0.52,0.4-0.92,0.941-0.92
			C272.27,51.34,272.62,51.74,272.62,52.26z M270.971,62.7v-8.15h1.479v8.15H270.971z M282.279,58.561c0,3-2.1,4.319-4.059,4.319
			c-2.201,0-3.9-1.601-3.9-4.2c0-2.699,1.779-4.3,4.039-4.3C280.7,54.38,282.28,56.061,282.279,58.561L282.279,58.561z
			 M275.82,58.641c0,1.799,1.02,3.129,2.47,3.129c1.399,0,2.46-1.33,2.46-3.16c0-1.369-0.68-3.119-2.43-3.119s-2.5,1.619-2.5,3.16
			V58.641z M280.52,51.04l-2.06,2.399h-1.06l1.479-2.399h1.63H280.52z M284.141,56.76c0-0.84,0-1.539-0.061-2.199h1.3l0.101,1.34
			h0.029c0.4-0.771,1.35-1.53,2.7-1.53c1.13,0,2.88,0.67,2.88,3.47v4.86h-1.48V58c0-1.3-0.5-2.4-1.899-2.4
			c-0.97,0-1.72,0.7-1.97,1.5c-0.07,0.2-0.1,0.45-0.1,0.7v4.9h-1.5V56.76z"/>
	</g>
	<path fill="#FCDF09" d="M183.029,50.46h5.271V64.1h-5.271V50.46z"/>
	<path fill="none" stroke="#1F1F1D" stroke-width="0.75" stroke-miterlimit="10" d="M185.66,53.1v10.17"/>
</g>
<g>
</g>
<g>
</g>
<g>
</g>
<g>
</g>
<g>
</g>
<g>
</g>
</svg>
